<svg width="400" height="400" viewBox="0 0 400 400" xmlns="http://www.w3.org/2000/svg">
    <!-- Background circle -->
    <circle cx="200" cy="200" r="180" fill="#f5f5f0" stroke="#334d5c" stroke-width="3"/>

    <!-- Central token (magnifying glass concept - represents discoverability) -->
    <circle cx="200" cy="200" r="50" fill="#5da5a5" stroke="#334d5c" stroke-width="4"/>

    <!-- Reciprocal arrows forming a cycle around center -->
    <!-- Top token -->
    <circle cx="200" cy="80" r="30" fill="#d17a4f" stroke="#334d5c" stroke-width="3"/>

    <!-- Right token -->
    <circle cx="320" cy="200" r="30" fill="#7a8a99" stroke="#334d5c" stroke-width="3"/>

    <!-- Bottom token -->
    <circle cx="200" cy="320" r="30" fill="#d17a4f" stroke="#334d5c" stroke-width="3"/>

    <!-- Left token -->
    <circle cx="80" cy="200" r="30" fill="#7a8a99" stroke="#334d5c" stroke-width="3"/>

    <!-- Forward arrows (standard attention) - curved, going clockwise -->
    <defs>
        <marker id="arrowhead-forward" markerWidth="10" markerHeight="10" refX="9" refY="3" orient="auto">
            <polygon points="0 0, 10 3, 0 6" fill="#d17a4f" />
        </marker>
        <marker id="arrowhead-reverse" markerWidth="10" markerHeight="10" refX="9" refY="3" orient="auto">
            <polygon points="0 0, 10 3, 0 6" fill="#5da5a5" />
        </marker>
    </defs>

    <!-- Forward attention (Q·K^T) - orange curved arrows -->
    <path d="M 220 90 Q 270 110 310 180" stroke="#d17a4f" stroke-width="4" fill="none" marker-end="url(#arrowhead-forward)"/>
    <path d="M 310 220 Q 270 290 220 310" stroke="#d17a4f" stroke-width="4" fill="none" marker-end="url(#arrowhead-forward)"/>
    <path d="M 180 310 Q 130 290 90 220" stroke="#d17a4f" stroke-width="4" fill="none" marker-end="url(#arrowhead-forward)"/>
    <path d="M 90 180 Q 130 110 180 90" stroke="#d17a4f" stroke-width="4" fill="none" marker-end="url(#arrowhead-forward)"/>

    <!-- Reverse attention (K·Q^T = S^T) - teal curved arrows going opposite direction -->
    <path d="M 310 190 Q 260 120 210 95" stroke="#5da5a5" stroke-width="4" fill="none" marker-end="url(#arrowhead-reverse)"/>
    <path d="M 210 305 Q 260 280 305 210" stroke="#5da5a5" stroke-width="4" fill="none" marker-end="url(#arrowhead-reverse)"/>
    <path d="M 95 210 Q 140 280 190 305" stroke="#5da5a5" stroke-width="4" fill="none" marker-end="url(#arrowhead-reverse)"/>
    <path d="M 190 95 Q 140 120 95 190" stroke="#5da5a5" stroke-width="4" fill="none" marker-end="url(#arrowhead-reverse)"/>

    <!-- Broadcast lines from center (discoverability) - dashed -->
    <line x1="200" y1="200" x2="200" y2="80" stroke="#5da5a5" stroke-width="2" stroke-dasharray="5,5" opacity="0.6"/>
    <line x1="200" y1="200" x2="320" y2="200" stroke="#5da5a5" stroke-width="2" stroke-dasharray="5,5" opacity="0.6"/>
    <line x1="200" y1="200" x2="200" y2="320" stroke="#5da5a5" stroke-width="2" stroke-dasharray="5,5" opacity="0.6"/>
    <line x1="200" y1="200" x2="80" y2="200" stroke="#5da5a5" stroke-width="2" stroke-dasharray="5,5" opacity="0.6"/>

    <!-- Magnifying glass handle -->
    <line x1="235" y1="235" x2="270" y2="270" stroke="#334d5c" stroke-width="8" stroke-linecap="round"/>

    <!-- Legend text moved outside circle -->
    <text x="200" y="410" text-anchor="middle" font-size="20" font-weight="bold" fill="white" stroke="#334d5c" stroke-width="0.5">
        Reciprocal Attention
    </text>
</svg>
